<mxfile host="app.diagrams.net" modified="2021-10-19T11:27:23.073Z" agent="5.0 (Windows)" etag="IJva4wP3GS4II9TRT--j" version="15.5.5" type="github">
  <diagram name="Page-1" id="c9db0220-8083-56f3-ca83-edcdcd058819">
    <mxGraphModel dx="1187" dy="660" grid="1" gridSize="10" guides="1" tooltips="1" connect="1" arrows="1" fold="1" page="1" pageScale="1.5" pageWidth="826" pageHeight="1169" background="none" math="0" shadow="0">
      <root>
        <mxCell id="0" style=";html=1;" />
        <mxCell id="1" style=";html=1;" parent="0" />
        <mxCell id="3d76a8aef4d5c911-1" value="" style="html=1;shadow=0;dashed=0;shape=mxgraph.bootstrap.rect;fillColor=#222222;strokeColor=none;whiteSpace=wrap;rounded=0;fontSize=12;fontColor=#000000;align=center;" parent="1" vertex="1">
          <mxGeometry x="40" y="70" width="640" height="40" as="geometry" />
        </mxCell>
        <mxCell id="3d76a8aef4d5c911-2" value="Home" style="html=1;shadow=0;dashed=0;fillColor=none;strokeColor=none;shape=mxgraph.bootstrap.rect;fontColor=#999999;fontSize=14;whiteSpace=wrap;" parent="3d76a8aef4d5c911-1" vertex="1">
          <mxGeometry width="64" height="40" as="geometry" />
        </mxCell>
        <mxCell id="3d76a8aef4d5c911-3" value="Study Part I" style="html=1;shadow=0;dashed=0;shape=mxgraph.bootstrap.rect;fillColor=#000000;strokeColor=none;fontColor=#CCCCCC;spacingRight=30;whiteSpace=wrap;" parent="3d76a8aef4d5c911-1" vertex="1">
          <mxGeometry x="64" width="116" height="40" as="geometry" />
        </mxCell>
        <mxCell id="3d76a8aef4d5c911-7" value="Study Part II" style="html=1;shadow=0;dashed=0;fillColor=#000000;strokeColor=none;shape=mxgraph.bootstrap.rect;fontColor=#FFFFFF;whiteSpace=wrap;fontStyle=0" parent="3d76a8aef4d5c911-1" vertex="1">
          <mxGeometry x="180" width="70" height="40" as="geometry" />
        </mxCell>
        <mxCell id="3d76a8aef4d5c911-10" value="Log Out" style="html=1;shadow=0;dashed=0;fillColor=none;strokeColor=none;shape=mxgraph.bootstrap.rect;fontColor=#999999;whiteSpace=wrap;" parent="3d76a8aef4d5c911-1" vertex="1">
          <mxGeometry x="584" width="56" height="40" as="geometry" />
        </mxCell>
        <mxCell id="-tRSDbGyhJU_2mms2toX-3" value="&lt;h1&gt;Study Part II&lt;br&gt;&lt;/h1&gt;&lt;p&gt;Evaluate the correctness of the methodology to use SNOMED CT features to produce new condition evolution statements for health conditions&lt;/p&gt;&lt;p&gt;&lt;br&gt;&lt;/p&gt;&lt;p&gt;.&lt;/p&gt;" style="text;html=1;strokeColor=none;fillColor=none;spacing=5;spacingTop=-20;whiteSpace=wrap;overflow=hidden;rounded=0;fontColor=#000000;align=left;" vertex="1" parent="1">
          <mxGeometry x="60" y="140" width="490" height="120" as="geometry" />
        </mxCell>
        <mxCell id="-tRSDbGyhJU_2mms2toX-31" value="" style="html=1;shadow=0;dashed=0;shape=mxgraph.bootstrap.rrect;rSize=5;strokeColor=#DFDFDF;html=1;whiteSpace=wrap;fillColor=#FFFFFF;fontColor=#000000;align=left;" vertex="1" parent="1">
          <mxGeometry x="60" y="240" width="580" height="120" as="geometry" />
        </mxCell>
        <mxCell id="-tRSDbGyhJU_2mms2toX-32" value="Initial health condition" style="html=1;shadow=0;dashed=0;shape=mxgraph.bootstrap.topButton;strokeColor=inherit;fillColor=#000000;rSize=5;perimeter=none;whiteSpace=wrap;resizeWidth=1;align=left;spacing=20;fontSize=14;fontColor=#FFFFFF;" vertex="1" parent="-tRSDbGyhJU_2mms2toX-31">
          <mxGeometry width="580" height="40" relative="1" as="geometry" />
        </mxCell>
        <mxCell id="-tRSDbGyhJU_2mms2toX-112" value="" style="shape=table;html=1;whiteSpace=wrap;startSize=0;container=1;collapsible=0;childLayout=tableLayout;fontColor=#000000;fillColor=#FFFFFF;align=left;" vertex="1" parent="-tRSDbGyhJU_2mms2toX-31">
          <mxGeometry x="19.75999999999999" y="60" width="470.62" height="42" as="geometry" />
        </mxCell>
        <mxCell id="-tRSDbGyhJU_2mms2toX-113" value="" style="shape=partialRectangle;html=1;whiteSpace=wrap;collapsible=0;dropTarget=0;pointerEvents=0;fillColor=none;top=0;left=0;bottom=0;right=0;points=[[0,0.5],[1,0.5]];portConstraint=eastwest;fontColor=#000000;align=left;" vertex="1" parent="-tRSDbGyhJU_2mms2toX-112">
          <mxGeometry width="470.62" height="21" as="geometry" />
        </mxCell>
        <mxCell id="-tRSDbGyhJU_2mms2toX-114" value="Health Condition" style="shape=partialRectangle;html=1;whiteSpace=wrap;connectable=0;fillColor=#7EA6E0;top=0;left=0;bottom=0;right=0;overflow=hidden;pointerEvents=1;fontColor=#000000;align=left;fontStyle=1" vertex="1" parent="-tRSDbGyhJU_2mms2toX-113">
          <mxGeometry width="131" height="21" as="geometry">
            <mxRectangle width="131" height="21" as="alternateBounds" />
          </mxGeometry>
        </mxCell>
        <mxCell id="-tRSDbGyhJU_2mms2toX-115" value="Condition Evolution Statement" style="shape=partialRectangle;html=1;whiteSpace=wrap;connectable=0;fillColor=#7EA6E0;top=0;left=0;bottom=0;right=0;overflow=hidden;pointerEvents=1;fontColor=#000000;align=center;fontStyle=1" vertex="1" parent="-tRSDbGyhJU_2mms2toX-113">
          <mxGeometry x="131" width="340" height="21" as="geometry">
            <mxRectangle width="340" height="21" as="alternateBounds" />
          </mxGeometry>
        </mxCell>
        <mxCell id="-tRSDbGyhJU_2mms2toX-121" value="" style="shape=partialRectangle;html=1;whiteSpace=wrap;collapsible=0;dropTarget=0;pointerEvents=0;fillColor=none;top=0;left=0;bottom=0;right=0;points=[[0,0.5],[1,0.5]];portConstraint=eastwest;fontColor=#000000;align=left;" vertex="1" parent="-tRSDbGyhJU_2mms2toX-112">
          <mxGeometry y="21" width="470.62" height="21" as="geometry" />
        </mxCell>
        <mxCell id="-tRSDbGyhJU_2mms2toX-122" value="Fracture of upper limb" style="shape=partialRectangle;html=1;whiteSpace=wrap;connectable=0;fillColor=none;top=0;left=0;bottom=0;right=0;overflow=hidden;pointerEvents=1;fontColor=#000000;align=left;" vertex="1" parent="-tRSDbGyhJU_2mms2toX-121">
          <mxGeometry width="131" height="21" as="geometry">
            <mxRectangle width="131" height="21" as="alternateBounds" />
          </mxGeometry>
        </mxCell>
        <mxCell id="-tRSDbGyhJU_2mms2toX-123" value="IMPROVE MODERATELY FROM 8 DAY TO 2 MONTH" style="shape=partialRectangle;html=1;whiteSpace=wrap;connectable=0;fillColor=none;top=0;left=0;bottom=0;right=0;overflow=hidden;pointerEvents=1;fontColor=#000000;align=center;" vertex="1" parent="-tRSDbGyhJU_2mms2toX-121">
          <mxGeometry x="131" width="340" height="21" as="geometry">
            <mxRectangle width="340" height="21" as="alternateBounds" />
          </mxGeometry>
        </mxCell>
        <mxCell id="-tRSDbGyhJU_2mms2toX-133" value="" style="shape=table;html=1;whiteSpace=wrap;startSize=0;container=1;collapsible=0;childLayout=tableLayout;fontColor=#000000;fillColor=#FFFFFF;align=left;" vertex="1" parent="1">
          <mxGeometry x="90" y="540" width="470.62" height="42" as="geometry" />
        </mxCell>
        <mxCell id="-tRSDbGyhJU_2mms2toX-134" value="" style="shape=partialRectangle;html=1;whiteSpace=wrap;collapsible=0;dropTarget=0;pointerEvents=0;fillColor=none;top=0;left=0;bottom=0;right=0;points=[[0,0.5],[1,0.5]];portConstraint=eastwest;fontColor=#000000;align=left;" vertex="1" parent="-tRSDbGyhJU_2mms2toX-133">
          <mxGeometry width="470.62" height="21" as="geometry" />
        </mxCell>
        <mxCell id="-tRSDbGyhJU_2mms2toX-135" value="Health Condition" style="shape=partialRectangle;html=1;whiteSpace=wrap;connectable=0;fillColor=#7EA6E0;top=0;left=0;bottom=0;right=0;overflow=hidden;pointerEvents=1;fontColor=#000000;align=left;fontStyle=1" vertex="1" parent="-tRSDbGyhJU_2mms2toX-134">
          <mxGeometry width="131" height="21" as="geometry">
            <mxRectangle width="131" height="21" as="alternateBounds" />
          </mxGeometry>
        </mxCell>
        <mxCell id="-tRSDbGyhJU_2mms2toX-136" value="Condition Evolution Statement" style="shape=partialRectangle;html=1;whiteSpace=wrap;connectable=0;fillColor=#7EA6E0;top=0;left=0;bottom=0;right=0;overflow=hidden;pointerEvents=1;fontColor=#000000;align=center;fontStyle=1" vertex="1" parent="-tRSDbGyhJU_2mms2toX-134">
          <mxGeometry x="131" width="340" height="21" as="geometry">
            <mxRectangle width="340" height="21" as="alternateBounds" />
          </mxGeometry>
        </mxCell>
        <mxCell id="-tRSDbGyhJU_2mms2toX-137" value="" style="shape=partialRectangle;html=1;whiteSpace=wrap;collapsible=0;dropTarget=0;pointerEvents=0;fillColor=none;top=0;left=0;bottom=0;right=0;points=[[0,0.5],[1,0.5]];portConstraint=eastwest;fontColor=#000000;align=left;" vertex="1" parent="-tRSDbGyhJU_2mms2toX-133">
          <mxGeometry y="21" width="470.62" height="21" as="geometry" />
        </mxCell>
        <mxCell id="-tRSDbGyhJU_2mms2toX-138" value="Fracture of tibia" style="shape=partialRectangle;html=1;whiteSpace=wrap;connectable=0;fillColor=none;top=0;left=0;bottom=0;right=0;overflow=hidden;pointerEvents=1;fontColor=#000000;align=left;" vertex="1" parent="-tRSDbGyhJU_2mms2toX-137">
          <mxGeometry width="131" height="21" as="geometry">
            <mxRectangle width="131" height="21" as="alternateBounds" />
          </mxGeometry>
        </mxCell>
        <mxCell id="-tRSDbGyhJU_2mms2toX-139" value="IMPROVE MODERATELY FROM 2 MONTH TO 6 MOTH" style="shape=partialRectangle;html=1;whiteSpace=wrap;connectable=0;fillColor=none;top=0;left=0;bottom=0;right=0;overflow=hidden;pointerEvents=1;fontColor=#000000;align=center;" vertex="1" parent="-tRSDbGyhJU_2mms2toX-137">
          <mxGeometry x="131" width="340" height="21" as="geometry">
            <mxRectangle width="340" height="21" as="alternateBounds" />
          </mxGeometry>
        </mxCell>
        <mxCell id="-tRSDbGyhJU_2mms2toX-140" value="" style="html=1;shadow=0;dashed=0;shape=mxgraph.bootstrap.rrect;rSize=5;strokeColor=#DFDFDF;html=1;whiteSpace=wrap;fillColor=#FFFFFF;fontColor=#000000;align=left;" vertex="1" parent="1">
          <mxGeometry x="60" y="380" width="660" height="120" as="geometry" />
        </mxCell>
        <mxCell id="-tRSDbGyhJU_2mms2toX-141" value="Produced health condition statement" style="html=1;shadow=0;dashed=0;shape=mxgraph.bootstrap.topButton;strokeColor=inherit;fillColor=#000000;rSize=5;perimeter=none;whiteSpace=wrap;resizeWidth=1;align=left;spacing=20;fontSize=14;fontColor=#FFFFFF;" vertex="1" parent="-tRSDbGyhJU_2mms2toX-140">
          <mxGeometry width="660" height="40" relative="1" as="geometry" />
        </mxCell>
        <mxCell id="-tRSDbGyhJU_2mms2toX-126" value="" style="shape=table;html=1;whiteSpace=wrap;startSize=0;container=1;collapsible=0;childLayout=tableLayout;fontColor=#000000;fillColor=#FFFFFF;align=left;" vertex="1" parent="-tRSDbGyhJU_2mms2toX-140">
          <mxGeometry x="22.05310344827586" y="60" width="617.5993103448276" height="42" as="geometry" />
        </mxCell>
        <mxCell id="-tRSDbGyhJU_2mms2toX-127" value="" style="shape=partialRectangle;html=1;whiteSpace=wrap;collapsible=0;dropTarget=0;pointerEvents=0;fillColor=none;top=0;left=0;bottom=0;right=0;points=[[0,0.5],[1,0.5]];portConstraint=eastwest;fontColor=#000000;align=left;" vertex="1" parent="-tRSDbGyhJU_2mms2toX-126">
          <mxGeometry width="617.5993103448276" height="21" as="geometry" />
        </mxCell>
        <mxCell id="-tRSDbGyhJU_2mms2toX-128" value="Health Condition" style="shape=partialRectangle;html=1;whiteSpace=wrap;connectable=0;fillColor=#7EA6E0;top=0;left=0;bottom=0;right=0;overflow=hidden;pointerEvents=1;fontColor=#000000;align=left;fontStyle=1" vertex="1" parent="-tRSDbGyhJU_2mms2toX-127">
          <mxGeometry width="115" height="21" as="geometry">
            <mxRectangle width="115" height="21" as="alternateBounds" />
          </mxGeometry>
        </mxCell>
        <mxCell id="-tRSDbGyhJU_2mms2toX-129" value="Condition Evolution Statement" style="shape=partialRectangle;html=1;whiteSpace=wrap;connectable=0;fillColor=#7EA6E0;top=0;left=0;bottom=0;right=0;overflow=hidden;pointerEvents=1;fontColor=#000000;align=center;fontStyle=1" vertex="1" parent="-tRSDbGyhJU_2mms2toX-127">
          <mxGeometry x="115" width="303" height="21" as="geometry">
            <mxRectangle width="303" height="21" as="alternateBounds" />
          </mxGeometry>
        </mxCell>
        <mxCell id="-tRSDbGyhJU_2mms2toX-149" value="Features" style="shape=partialRectangle;html=1;whiteSpace=wrap;connectable=0;fillColor=#7EA6E0;top=0;left=0;bottom=0;right=0;overflow=hidden;pointerEvents=1;fontColor=#000000;align=center;fontStyle=1" vertex="1" parent="-tRSDbGyhJU_2mms2toX-127">
          <mxGeometry x="418" width="200" height="21" as="geometry">
            <mxRectangle width="200" height="21" as="alternateBounds" />
          </mxGeometry>
        </mxCell>
        <mxCell id="-tRSDbGyhJU_2mms2toX-130" value="" style="shape=partialRectangle;html=1;whiteSpace=wrap;collapsible=0;dropTarget=0;pointerEvents=0;fillColor=none;top=0;left=0;bottom=0;right=0;points=[[0,0.5],[1,0.5]];portConstraint=eastwest;fontColor=#000000;align=left;" vertex="1" parent="-tRSDbGyhJU_2mms2toX-126">
          <mxGeometry y="21" width="617.5993103448276" height="21" as="geometry" />
        </mxCell>
        <mxCell id="-tRSDbGyhJU_2mms2toX-131" value="Fracture of femur" style="shape=partialRectangle;html=1;whiteSpace=wrap;connectable=0;fillColor=none;top=0;left=0;bottom=0;right=0;overflow=hidden;pointerEvents=1;fontColor=#000000;align=left;" vertex="1" parent="-tRSDbGyhJU_2mms2toX-130">
          <mxGeometry width="115" height="21" as="geometry">
            <mxRectangle width="115" height="21" as="alternateBounds" />
          </mxGeometry>
        </mxCell>
        <mxCell id="-tRSDbGyhJU_2mms2toX-132" value="IMPROVE MODERATELY FROM 8 DAYS TO 2 MONTHS" style="shape=partialRectangle;html=1;whiteSpace=wrap;connectable=0;fillColor=none;top=0;left=0;bottom=0;right=0;overflow=hidden;pointerEvents=1;fontColor=#000000;align=center;" vertex="1" parent="-tRSDbGyhJU_2mms2toX-130">
          <mxGeometry x="115" width="303" height="21" as="geometry">
            <mxRectangle width="303" height="21" as="alternateBounds" />
          </mxGeometry>
        </mxCell>
        <mxCell id="-tRSDbGyhJU_2mms2toX-150" style="shape=partialRectangle;html=1;whiteSpace=wrap;connectable=0;fillColor=none;top=0;left=0;bottom=0;right=0;overflow=hidden;pointerEvents=1;fontColor=#000000;align=center;" vertex="1" parent="-tRSDbGyhJU_2mms2toX-130">
          <mxGeometry x="418" width="200" height="21" as="geometry">
            <mxRectangle width="200" height="21" as="alternateBounds" />
          </mxGeometry>
        </mxCell>
      </root>
    </mxGraphModel>
  </diagram>
</mxfile>
